HIERARCHY
ROOT Hips
{
	OFFSET 0.000000 0.000000 0.000000
	CHANNELS 6 Xposition Yposition Zposition Zrotation Xrotation Yrotation
	JOINT Spine
	{
		OFFSET 0.000000 -0.744707 -0.000000
		CHANNELS 6 Xposition Yposition Zposition Zrotation Xrotation Yrotation
		JOINT Spine1
		{
			OFFSET 0.000000 -2.032240 -0.000000
			CHANNELS 6 Xposition Yposition Zposition Zrotation Xrotation Yrotation
			JOINT Neck
			{
				OFFSET 0.000000 -2.213880 -0.000000
				CHANNELS 6 Xposition Yposition Zposition Zrotation Xrotation Yrotation
				JOINT Head
				{
					OFFSET 0.000000 -1.407680 -0.181636
					CHANNELS 6 Xposition Yposition Zposition Zrotation Xrotation Yrotation
					End Site
					{
						OFFSET 0.000000 -1.816356 -0.000000
					}
				}
			}
			JOINT LeftShoulder
			{
				OFFSET 0.365767 -1.787590 0.048012
				CHANNELS 6 Xposition Yposition Zposition Zrotation Xrotation Yrotation
				JOINT LeftArm
				{
					OFFSET 1.305160 0.000000 0.000000
					CHANNELS 6 Xposition Yposition Zposition Zrotation Xrotation Yrotation
					JOINT LeftForeArm
					{
						OFFSET 2.559210 0.000000 0.000000
						CHANNELS 6 Xposition Yposition Zposition Zrotation Xrotation Yrotation
						JOINT LeftHand
						{
							OFFSET 2.378450 0.000000 0.000000
							CHANNELS 6 Xposition Yposition Zposition Zrotation Xrotation Yrotation
							End Site
							{
								OFFSET 1.362267 0.000000 0.000000
							}
						}
					}
				}
			}
			JOINT RightShoulder
			{
				OFFSET -0.360721 -1.787590 0.048012
				CHANNELS 6 Xposition Yposition Zposition Zrotation Xrotation Yrotation
				JOINT RightArm
				{
					OFFSET -1.305160 0.000000 0.000000
					CHANNELS 6 Xposition Yposition Zposition Zrotation Xrotation Yrotation
					JOINT RightForeArm
					{
						OFFSET -2.559210 0.000000 0.000000
						CHANNELS 6 Xposition Yposition Zposition Zrotation Xrotation Yrotation
						JOINT RightHand
						{
							OFFSET -2.378450 0.000000 0.000000
							CHANNELS 6 Xposition Yposition Zposition Zrotation Xrotation Yrotation
							End Site
							{
								OFFSET -1.362267 0.000000 0.000000
							}
						}
					}
				}
			}
		}
	}
	JOINT LeftUpLeg
	{
		OFFSET 0.908180 0.000000 0.000000
		CHANNELS 6 Xposition Yposition Zposition Zrotation Xrotation Yrotation
		JOINT LeftLeg
		{
			OFFSET 0.000000 3.819490 0.000002
			CHANNELS 6 Xposition Yposition Zposition Zrotation Xrotation Yrotation
			JOINT LeftFoot
			{
				OFFSET 0.000000 4.004300 0.000002
				CHANNELS 6 Xposition Yposition Zposition Zrotation Xrotation Yrotation
				JOINT LeftToeBase
				{
					OFFSET 0.000000 0.590317 -1.362270
					CHANNELS 6 Xposition Yposition Zposition Zrotation Xrotation Yrotation
					End Site
					{
						OFFSET 0.000000 0.000000 -0.363271
					}
				}
			}
		}
	}
	JOINT RightUpLeg
	{
		OFFSET -0.908180 0.000000 0.000000
		CHANNELS 6 Xposition Yposition Zposition Zrotation Xrotation Yrotation
		JOINT RightLeg
		{
			OFFSET 0.000000 3.819490 0.000002
			CHANNELS 6 Xposition Yposition Zposition Zrotation Xrotation Yrotation
			JOINT RightFoot
			{
				OFFSET 0.000000 4.004300 0.000002
				CHANNELS 6 Xposition Yposition Zposition Zrotation Xrotation Yrotation
				JOINT RightToeBase
				{
					OFFSET 0.000000 0.590317 -1.362270
					CHANNELS 6 Xposition Yposition Zposition Zrotation Xrotation Yrotation
					End Site
					{
						OFFSET 0.000000 0.000000 -0.363271
					}
				}
			}
		}
	}
}
MOTION
Frames: 7
Frame Time: 0.016667
-1.660254 -7.952991 -1.982769 0.330561 7.409364 2.510293 -0.000000 -0.744707 -0.000000 1.600125 -22.163481 -10.160190 0.000000 -2.032239 -0.000000 -9.853111 21.522003 -1.616247 0.000000 -2.213881 -0.000000 -7.031620 0.190231 2.285302 0.000000 -1.407681 -0.181636 1.267126 7.398212 1.167104 0.365767 -1.787591 0.048012 -13.445454 -2.751485 -1.386119 1.305160 0.000001 -0.000000 47.676428 11.846895 6.551524 2.559210 0.000002 -0.000000 0.793528 -32.166790 76.148167 2.378450 0.000000 -0.000001 -23.382640 -27.392347 -28.936742 -0.360721 -1.787590 0.048012 7.337892 -5.471759 -7.225684 -1.305160 0.000001 -0.000000 -43.496397 14.638969 -36.814805 -2.559209 -0.000000 -0.000001 48.004830 -51.580318 -76.483222 -2.378449 0.000001 -0.000000 58.008346 -9.452698 15.920734 0.908180 0.000001 -0.000000 -1.233293 -9.013700 -2.064594 -0.000000 3.819490 0.000001 -2.396588 10.685483 -4.499898 0.000000 4.004299 0.000001 -3.332678 -3.767027 -22.202233 0.000000 0.590316 -1.362270 -0.000001 0.000003 0.000003 -0.908180 0.000001 -0.000000 17.949339 -19.974168 -0.728225 -0.000000 3.819489 0.000001 -5.637924 21.976380 -13.372127 -0.000000 4.004299 0.000000 -3.175327 -1.418689 47.859853 -0.000001 0.590318 -1.362269 0.000002 0.000004 0.000007 
-1.642591 -7.954000 -1.976745 0.332866 7.390117 2.662654 -0.000000 -0.744707 0.000000 1.511892 -22.093608 -10.038557 0.000000 -2.032238 -0.000001 -9.657120 21.429666 -1.615015 -0.000000 -2.213881 -0.000000 -7.219986 0.432861 2.071804 0.000000 -1.407682 -0.181636 1.529975 7.211746 0.857459 0.365767 -1.787592 0.048012 -13.369550 -3.040552 -1.107818 1.305161 0.000001 -0.000000 47.439601 9.759761 7.394831 2.559210 0.000002 -0.000000 0.113796 -32.948494 75.644755 2.378450 0.000001 -0.000001 -26.597658 -26.672695 -30.233132 -0.360721 -1.787591 0.048012 7.295793 -5.284996 -7.134731 -1.305161 0.000002 -0.000000 -44.059129 14.767378 -36.740646 -2.559209 0.000001 0.000000 47.747814 -51.191202 -76.822095 -2.378449 0.000000 0.000001 58.031220 -9.008061 15.606212 0.908180 0.000000 0.000000 -1.141299 -9.096837 -2.090523 0.000000 3.819491 0.000001 -2.358483 10.833143 -4.822977 0.000000 4.004299 0.000001 -3.377258 -3.813269 -22.002083 0.000000 0.590316 -1.362270 0.000000 0.000001 -0.000002 -0.908180 0.000001 0.000000 17.780936 -20.210301 -1.120583 0.000000 3.819490 0.000002 -5.952100 22.397597 -12.758477 -0.000000 4.004300 0.000001 -2.563894 -2.066706 47.939441 -0.000001 0.590316 -1.362270 -0.000001 0.000004 0.000005 
-1.626782 -7.955176 -1.970095 0.351690 7.338816 2.789045 0.000000 -0.744706 -0.000000 1.452543 -21.982689 -9.859516 -0.000000 -2.032239 0.000000 -9.501953 21.345688 -1.587562 0.000000 -2.213879 -0.000000 -7.351032 0.685734 1.825310 0.000000 -1.407678 -0.181636 1.753487 6.995449 0.528975 0.365767 -1.787588 0.048012 -13.315885 -3.429536 -0.817843 1.305160 0.000000 0.000000 47.192448 8.029794 8.073366 2.559211 0.000000 -0.000000 -0.607385 -33.896723 75.144580 2.378449 -0.000000 -0.000000 -29.841957 -26.016831 -31.539918 -0.360721 -1.787591 0.048012 7.277774 -5.155184 -7.092175 -1.305160 -0.000000 -0.000000 -44.459101 15.167661 -36.616299 -2.559210 -0.000001 -0.000001 47.937635 -50.910690 -76.679358 -2.378452 0.000002 -0.000001 58.174360 -8.578695 15.386357 0.908180 0.000001 -0.000000 -1.176225 -9.180297 -1.978730 -0.000000 3.819491 0.000002 -2.117485 11.053610 -4.833134 0.000000 4.004300 0.000001 -3.534771 -3.870377 -22.223943 0.000000 0.590316 -1.362270 0.000001 0.000000 0.000005 -0.908180 0.000000 -0.000000 17.564369 -20.382982 -1.564609 0.000000 3.819489 0.000002 -6.249529 22.762174 -12.031905 0.000000 4.004301 0.000001 -2.215956 -2.668857 47.886163 -0.000000 0.590316 -1.362271 0.000001 0.000004 -0.000001 
-1.611688 -7.956424 -1.964397 0.374516 7.296437 2.899922 -0.000000 -0.744706 -0.000000 1.383749 -21.889955 -9.648814 -0.000000 -2.032242 -0.000001 -9.331678 21.258621 -1.551906 -0.000000 -2.213880 -0.000001 -7.513684 0.959692 1.565518 0.000000 -1.407683 -0.181636 2.061160 6.783120 0.165106 0.365767 -1.787590 0.048012 -13.256759 -3.716226 -0.578071 1.305160 0.000001 -0.000000 46.800955 6.240732 8.826834 2.559210 0.000000 0.000000 -1.137646 -34.611458 74.648954 2.378449 -0.000001 0.000000 -33.102092 -25.166590 -32.796362 -0.360721 -1.787591 0.048012 7.261275 -4.938677 -7.022254 -1.305160 0.000002 -0.000000 -44.816751 15.517164 -36.573109 -2.559209 -0.000000 -0.000001 47.886357 -50.564737 -76.694487 -2.378449 0.000001 -0.000000 58.360476 -8.232226 15.059478 0.908180 0.000001 0.000000 -1.196103 -9.274607 -1.997727 -0.000000 3.819491 0.000002 -1.937438 11.269764 -4.820818 -0.000000 4.004300 0.000001 -3.640379 -3.924329 -22.347797 -0.000000 0.590316 -1.362270 0.000000 0.000002 0.000003 -0.908180 0.000000 0.000000 17.342567 -20.507795 -1.999963 0.000000 3.819489 0.000002 -6.446160 23.066346 -11.770450 -0.000000 4.004301 0.000001 -1.837990 -3.072468 47.869323 -0.000000 0.590316 -1.362271 0.000003 0.000005 0.000004 
-1.597036 -7.957080 -1.959502 0.393827 7.224565 3.010688 -0.000000 -0.744706 -0.000000 1.341458 -21.744534 -9.416106 0.000000 -2.032239 -0.000001 -9.193913 21.127522 -1.507710 0.000000 -2.213882 -0.000000 -7.675644 1.234443 1.289197 -0.000000 -1.407679 -0.181637 2.410186 6.602092 -0.223342 0.365767 -1.787592 0.048012 -13.239169 -4.051985 -0.321953 1.305161 0.000001 -0.000000 46.379539 4.569709 9.428823 2.559211 -0.000000 0.000000 -1.802692 -35.192423 74.003932 2.378448 -0.000000 -0.000001 -36.025252 -24.162493 -33.832994 -0.360721 -1.787591 0.048012 7.219655 -4.704727 -6.907279 -1.305160 0.000003 -0.000000 -44.988161 16.059711 -36.554237 -2.559211 -0.000000 -0.000001 48.185110 -50.211070 -76.373850 -2.378448 0.000002 0.000001 58.371206 -7.710365 14.906323 0.908180 0.000002 -0.000000 -1.179642 -9.326389 -2.162698 -0.000000 3.819491 0.000002 -1.850484 11.458862 -4.956562 0.000000 4.004298 0.000001 -3.724578 -3.995997 -22.179390 -0.000000 0.590316 -1.362270 -0.000002 0.000002 -0.000004 -0.908180 0.000002 -0.000000 17.128392 -20.594258 -2.389736 0.000000 3.819488 0.000001 -6.737872 23.406688 -11.537696 0.000000 4.004301 0.000001 -1.355246 -3.548978 47.898453 -0.000001 0.590317 -1.362269 0.000001 0.000003 0.000001 
-1.583374 -7.957637 -1.955320 0.403949 7.148450 3.103445 -0.000000 -0.744706 0.000000 1.331277 -21.622835 -9.137588 0.000000 -2.032238 0.000000 -9.100090 21.037307 -1.438477 0.000000 -2.213883 -0.000000 -7.766425 1.496432 0.987984 -0.000000 -1.407679 -0.181637 2.726751 6.423576 -0.621069 0.365767 -1.787592 0.048012 -13.194215 -4.379182 -0.082129 1.305160 0.000001 -0.000000 45.825242 3.264904 9.975076 2.559209 0.000001 0.000000 -2.658954 -35.925893 73.194431 2.378449 -0.000001 -0.000001 -39.271511 -23.087093 -34.706059 -0.360721 -1.787592 0.048012 7.236529 -4.520294 -6.872090 -1.305161 -0.000001 0.000000 -45.054233 16.669128 -36.557529 -2.559209 0.000000 -0.000001 48.683478 -49.920992 -75.785266 -2.378452 0.000000 0.000001 58.710981 -7.282031 14.686660 0.908180 0.000001 0.000000 -1.123540 -9.391179 -2.373010 0.000000 3.819490 0.000001 -1.850877 11.671912 -5.139655 0.000000 4.004300 0.000001 -3.727061 -4.079871 -21.895496 0.000000 0.590317 -1.362270 0.000001 0.000005 0.000001 -0.908180 0.000002 -0.000000 16.921138 -20.656432 -2.778129 0.000000 3.819490 0.000001 -6.871665 23.636669 -11.601013 0.000000 4.004301 0.000001 -0.745353 -3.627659 47.886282 0.000000 0.590317 -1.362270 0.000001 0.000005 0.000002 
-1.570978 -7.957819 -1.951319 0.399695 7.106192 3.192207 -0.000000 -0.744706 -0.000000 1.332416 -21.527134 -8.861422 0.000000 -2.032238 0.000000 -8.988510 20.923098 -1.376033 0.000000 -2.213882 -0.000000 -7.946583 1.793972 0.727169 0.000000 -1.407684 -0.181636 3.210012 6.212435 -1.020506 0.365767 -1.787591 0.048012 -13.203256 -4.733257 0.159869 1.305160 -0.000001 -0.000000 45.169585 1.971362 10.425393 2.559208 0.000001 0.000000 -3.660315 -36.344833 72.153975 2.378450 -0.000001 -0.000001 -42.399762 -21.689139 -35.189910 -0.360721 -1.787591 0.048012 7.209813 -4.359063 -6.841059 -1.305160 0.000001 -0.000000 -45.186090 17.229593 -36.373407 -2.559210 -0.000000 -0.000001 48.937124 -49.508339 -75.488856 -2.378450 0.000003 -0.000001 58.937935 -6.741755 14.413393 0.908180 0.000002 -0.000000 -1.146539 -9.468227 -2.452212 -0.000000 3.819491 0.000002 -1.660468 11.870910 -5.251394 0.000000 4.004300 0.000001 -3.825166 -4.165453 -21.819494 -0.000000 0.590318 -1.362270 0.000002 0.000004 0.000002 -0.908180 0.000002 -0.000000 16.707944 -20.737622 -3.101721 0.000000 3.819490 0.000001 -6.979205 23.995050 -12.165188 0.000000 4.004299 0.000001 0.079882 -3.837255 48.157666 0.000001 0.590316 -1.362270 -0.000001 0.000004 0.000001 
